<?xml version="1.0" encoding="UTF-8" standalone="no"?><svg xmlns="http://www.w3.org/2000/svg" height="113px" width="380px" version="1.1" xmlns:xlink="http://www.w3.org/1999/xlink" viewBox="0 0 380 113"><defs><linearGradient id="d" y1="4.96%" x2="-38.3%" x1="91.5%" y2="71.8%"><stop stop-color="#00A0FF" offset="0"/><stop stop-color="#00A1FF" offset=".01"/><stop stop-color="#00BEFF" offset=".26"/><stop stop-color="#00D2FF" offset=".51"/><stop stop-color="#00DFFF" offset=".76"/><stop stop-color="#00E3FF" offset="1"/></linearGradient><linearGradient id="c" y1="50%" x2="-130%" x1="108%" y2="50%"><stop stop-color="#FFE000" offset="0"/><stop stop-color="#FFBD00" offset=".41"/><stop stop-color="#FFA500" offset=".78"/><stop stop-color="#FF9C00" offset="1"/></linearGradient><linearGradient id="b" y1="17.9%" x2="-50.2%" x1="86.2%" y2="195%"><stop stop-color="#FF3A44" offset="0"/><stop stop-color="#C31162" offset="1"/></linearGradient><linearGradient id="a" y1="-54.2%" x2="42.1%" x1="-18.8%" y2="24.9%"><stop stop-color="#32A071" offset="0"/><stop stop-color="#2DA771" offset=".07"/><stop stop-color="#15CF74" offset=".48"/><stop stop-color="#06E775" offset=".8"/><stop stop-color="#00F076" offset="1"/></linearGradient></defs><g fill-rule="evenodd" fill="none"><g id="Get-it-on-Google-play" transform="translate(-28 -28)"><rect id="Rectangle-path" fill-opacity="0" height="169" width="436" y="0" x="0" fill="#fff"/><rect id="Rectangle-path" rx="14.1" height="112" width="380" y="28.1" x="28.1" fill="#000"/><path id="Shape" stroke="#fff" stroke-width=".2" fill="#fff" d="m161 56.9c1 2.1 0 4.1-2 5.7-1 1.6-4 2.5-6 2.4-5 0-9-3.9-9-8.8 0-4.8 4-8.8 9-8.8 1 0 3 0.3 4 0.7 1 0.5 2 1.1 2 1.9l-1 1.5c-1-1.3-3-2.1-5-2-3 0-6 2.1-6 5-1 2.9 0 6 3 7.5 2 1.6 6 1.2 8-0.9 1-0.9 1-2.2 1-3.4h-6v-2h8v1.2z"/><polygon id="Shape" stroke="#fff" stroke-width=".2" points="174 49.9 167 49.9 167 55.2 174 55.2 174 57.2 167 57.2 167 62.6 174 62.6 174 64.6 165 64.6 165 47.8 174 47.8" fill="#fff"/><polygon id="Shape" stroke="#fff" stroke-width=".2" points="184 64.7 181 64.7 181 49.9 177 49.9 177 47.8 188 47.8 188 49.9 184 49.9" fill="#fff"/><polygon id="Shape" stroke="#fff" stroke-width=".2" points="197 64.7 197 47.8 199 47.8 199 64.7" fill="#fff"/><polygon id="Shape" stroke="#fff" stroke-width=".2" points="208 64.7 206 64.7 206 49.9 202 49.9 202 47.8 213 47.8 213 49.9 208 49.9" fill="#fff"/><path id="Shape" stroke="#fff" stroke-width=".2" fill="#fff" d="m235 62.5c-3 3.4-9 3.4-12 0-4-3.5-4-9 0-12.5 1-1.7 4-2.6 6-2.6s4 0.9 6 2.6c3 3.5 3 9 0 12.5zm-11-1.4c3 2.5 7 2.5 9 0 3-2.8 3-7 0-9.7-2-2.5-6-2.5-9 0-2 2.7-2 6.9 0 9.7z"/><polygon id="Shape" stroke="#fff" stroke-width=".2" points="241 64.7 241 47.8 243 47.8 251 60.9 252 60.9 251 57.7 251 47.8 254 47.8 254 64.7 251 64.7 243 50.9 243 50.9 243 54.2 243 64.7" fill="#fff"/><path id="Shape" fill="#fff" d="m220 89.3c-7 0-12 5.3-12 11.7 0 7 5 12 12 12 6 0 12-5 12-12 0-2.9-1-6-4-8.3-2-2.2-5-3.5-8-3.4zm0 18.7c-3 1-6-1-7-4-2-2-1-5.5 1-7.7s5-2.9 8-1.8 4 3.7 4 6.5c1 2 0 4-1 5-2 2-3 2-5 2zm-26-18.7c-7 0-12 5.3-12 11.7 0 7 5 12 12 12 6 0 12-5 12-12 0-2.9-2-6-4-8.3-2-2.2-5-3.5-8-3.4zm0 18.7c-3 1-6-1-8-4-1-2 0-5.5 2-7.7s5-2.9 8-1.8c2 1.1 4 3.7 4 6.5 0 2 0 4-2 5-1 2-3 2-4 2zm-32-15.1v5.1h12c0 2-1 5-2 6-3 3-6 4-10 4-7 0-13-6-13-13.4s6-13.5 13-13.5c4 0 7 1.3 10 3.6l3-3.5c-3-3.4-8-5.2-13-5.2-10 0-18 8.3-18 18.6 0 10.4 8 18.4 18 18.4 6 0 10-2 13-5 4-3 5-8.1 5-11.9 0-1.1 0-2.1-1-3.2h-17zm128 4c-1-2.7-4-7.6-10-7.6-7 0-12 4.8-12 11.7 0 3 1 7 4 9 2 2 5 3 8 3 4 0 8-2 10-5l-4-3c-1 2-3 4-6 4-2 0-5-2-6-4l16-6.7v-1.4zm-17 4.1c0-1.9 1-3.6 2-4.9 1-1.4 3-2.1 5-2.2s3 0.9 4 2.5l-11 4.6zm-13 11h6v-34.6h-6v34.6zm-8-20c-2-1.8-4-2.8-7-2.7-6 0-11 5.2-11 11.7 0 7 5 12 11 12 3 0 5-1 7-3v2c0 5-3 7-7 7-2 0-5-2-6-4l-4 2c2 4 6 7 10 7 7 0 12-4 12-13v-21h-5v2zm-6 16c-4 0-7-3-7-7 0-3.9 3-7 7-7 3 0 6 3.1 6 7 0 5-3 7-6 7zm68-30.6h-12v34.6h5v-12.8h7c6 0 12-4.3 12-11s-6-10.8-12-10.8zm0 16.9h-7v-12h7c4 0 6 2.7 6 6s-2 6-6 6zm33-5c-4 0-8 1.7-9 5.4l4 1.9c1-1.7 3-2.7 5-2.6 3 0 5 1.7 6 4.6v0.3c-2-0.9-4-1.4-6-1.3-5 0-10 2.4-10 7.4s4 8 9 8c2 0 5-1 6-3h1v2h5v-13.1c0-6.2-5-9.7-11-9.7v0.1zm-1 19.7c-1 0-4-1-4-3 0-3 3-4 6-4 1 0 3 0 5 1-1 3-4 5-7 5v1zm30-19l-6 15-6-15h-6l9 21-5 12h5l15-33h-6zm-47 23h5v-35.6h-5v35.6z"/><path id="Shape" fill="url(#d)" d="m57.4 49.4c-0.9 1.1-1.3 2.5-1.2 4v62.6c-0.1 1 0.3 2 1.2 4h0.3l34.8-35.1v-0.8l-34.8-35-0.3 0.3z"/><path id="Shape" fill="url(#c)" d="m104 96.4l-11.5-11.6v-0.9l11.5-11.5v0.1l14 7.8c4 2.3 4 5.9 0 8.1l-14 7.9v0.1z"/><path id="Shape" fill="url(#b)" d="m104 96.2l-11.5-11.8-35 34.6c1.3 2 3.4 2 5.8 1l40.7-23.8"/><path id="Shape" fill="url(#a)" d="m104 72.5l-40.7-23.4c-2.4-1.3-4.5-1.2-5.8 0.2l35 35 11.5-11.8z"/><path id="Shape" opacity=".2" fill="#000" d="m104 96l-40.7 23c-2.3 1-4.3 1-5.6 0h-0.2l0.2 1c1.3 1 3.3 1 5.6 0l40.7-23.8v-0.2z"/><path id="Shape" opacity=".12" fill="#000" d="m57.4 119c-0.9-1-1.3-3-1.2-4-0.1 2 0.3 3 1.2 4h0.3-0.3z"/><path id="Shape" opacity=".12" fill="#000" d="m118 88l-14 8v0.3l14-7.9c2-1.1 3-2.6 3-4 0 1.6-1 2.9-3 3.6z"/><path id="Shape" opacity=".25" fill="#fff" d="m63.3 49.6l54.7 31.1c2 0.7 3 2 3 3.7 0-1.5-1-3-3-4.1l-54.7-31.2c-3.9-2.2-7.1-0.3-7.1 4.2v0.4c0-4.5 3.2-6.3 7.1-4.1z"/></g></g></svg>
