<?xml version="1.0" encoding="UTF-8" standalone="no"?><svg xmlns="http://www.w3.org/2000/svg" height="40px" width="135px" version="1.1" xmlns:xlink="http://www.w3.org/1999/xlink" viewBox="511 829 135 40"><g fill-rule="evenodd" transform="translate(511 829)" fill="none"><g id="US_UK_Download_on_the"><g id="Group"><path id="Shape" fill="#000" d="m134 35.3c0 2.1-2 3.8-4 3.8h-125c-2.39 0-4.11-1.7-4.11-3.8v-30.6c0-2.09 1.72-3.81 3.84-3.81h125c2 0 4 1.72 4 3.83v30.6z"/><g id="Shape" fill="#fff" transform="translate(12 6)"><path d="m18.1 13.8c0-3.2 2.7-4.81 2.8-4.88-1.5-2.2-3.9-2.5-4.7-2.53-2-0.21-3.9 1.18-4.9 1.18s-2.53-1.16-4.19-1.12c-2.14 0.03-4.14 1.27-5.24 3.19-2.27 3.96-0.58 9.66 1.59 12.9 1.09 1.6 2.36 3.3 4.02 3.2 1.62 0 2.23-1 4.22-1 1.9 0 2.5 1 4.2 1s2.8-1.6 3.9-3.1c1.2-1.8 1.7-3.6 1.7-3.7 0 0-3.3-1.3-3.4-5.1z"/><path d="m14.9 4.31c0.9-1.1 1.5-2.58 1.3-4.09-1.2 0.053-2.8 0.87-3.7 1.94-0.8 0.94-1.5 2.49-1.4 3.94 1.5 0.1 2.9-0.72 3.8-1.79z"/></g><g id="Shape" fill="#fff" transform="translate(42 18)"><path d="m11.6 13.5h-2.23l-1.24-3.9h-4.32l-1.19 3.9h-2.21l4.28-13.3 2.65-0.004 4.26 13.3zm-3.84-5.54l-1.13-3.48c-0.12-0.36-0.34-1.19-0.67-2.51h-0.04c-0.13 0.57-0.34 1.41-0.63 2.51l-1.11 3.48h3.58z"/><path d="m22.7 8.59c0 1.61-0.5 2.91-1.4 3.91-0.8 0.8-1.7 1.2-2.9 1.2-1.3 0-2.2-0.4-2.7-1.3h-0.1v5h-2.1v-10.3c0-1.06 0-2.11-0.1-3.19h1.9l0.1 1.52h0.1c0.7-1.15 1.7-1.72 3.2-1.72 1.1 0 2.1 0.45 2.8 1.34 0.8 0.9 1.2 2.08 1.2 3.54zm-2.2 0.08c0-0.94-0.2-1.71-0.6-2.31-0.5-0.64-1.1-0.95-1.9-0.95-0.5 0-1 0.17-1.4 0.52-0.5 0.35-0.7 0.81-0.9 1.37 0 0.27-0.1 0.48-0.1 0.65v1.6c0 0.75 0.2 1.25 0.7 1.75 0.4 0.5 1 0.7 1.6 0.7 0.8 0 1.5-0.3 1.9-0.9 0.5-0.6 0.7-1.42 0.7-2.43z"/><path d="m33.7 8.59c0 1.61-0.4 2.91-1.3 3.91-0.8 0.8-1.8 1.2-3 1.2s-2.1-0.4-2.7-1.3v5h-2.2v-10.3-3.19h1.8l0.2 1.52c0.7-1.15 1.8-1.72 3.2-1.72 1.2 0 2.1 0.45 2.9 1.34 0.7 0.9 1.1 2.08 1.1 3.54zm-2.2 0.08c0-0.94-0.2-1.71-0.6-2.31-0.5-0.64-1.1-0.95-1.9-0.95-0.5 0-1 0.17-1.4 0.52s-0.7 0.81-0.8 1.37c-0.1 0.27-0.1 0.48-0.1 0.65v1.6c0 0.75 0.2 1.25 0.6 1.75s1 0.7 1.7 0.7c0.8 0 1.4-0.3 1.9-0.9 0.4-0.6 0.6-1.42 0.6-2.43z"/><path d="m46 9.77c0 1.13-0.4 2.03-1.1 2.73-0.9 0.8-2.1 1.2-3.7 1.2-1.4 0-2.5-0.3-3.4-0.8l0.5-1.8c0.9 0.6 1.9 0.8 3.1 0.8 0.8 0 1.4-0.1 1.8-0.5 0.5-0.4 0.7-0.8 0.7-1.45 0-0.54-0.2-1-0.5-1.37-0.4-0.37-1-0.71-1.9-1.03-2.3-0.87-3.5-2.14-3.5-3.81 0-1.1 0.4-1.99 1.2-2.69 0.9-0.7 1.9-1.05 3.3-1.05 1.2 0.001 2.2 0.212 3 0.633l-0.5 1.74c-0.8-0.41-1.6-0.61-2.6-0.61-0.7 0-1.3 0.18-1.7 0.55-0.4 0.33-0.5 0.73-0.5 1.21 0 0.52 0.2 0.96 0.6 1.3 0.3 0.32 1 0.66 1.9 1.03 1.1 0.46 2 1 2.5 1.61 0.6 0.62 0.8 1.39 0.8 2.31z"/><path d="m53.1 5.51h-2.4v4.69c0 1.2 0.5 1.7 1.3 1.7 0.4 0 0.7 0 0.9-0.1l0.1 1.7c-0.4 0.1-1 0.2-1.7 0.2-0.8 0-1.5-0.3-1.9-0.8-0.5-0.5-0.8-1.3-0.8-2.6v-4.79h-1.4v-1.6h1.4v-1.76l2.1-0.63v2.39h2.4v1.6z"/><path d="m63.7 8.63c0 1.47-0.4 2.67-1.3 3.67-0.9 0.9-2 1.4-3.5 1.4-1.4 0-2.5-0.4-3.4-1.4-0.8-0.9-1.2-2.1-1.2-3.51 0-1.49 0.4-2.71 1.3-3.66 0.8-0.94 2-1.42 3.5-1.42 1.4 0 2.5 0.47 3.4 1.4 0.8 0.91 1.2 2.08 1.2 3.52zm-2.2 0.07c0-0.89-0.2-1.65-0.6-2.28-0.4-0.77-1.1-1.15-1.9-1.15-0.9 0-1.5 0.38-2 1.15-0.3 0.63-0.5 1.4-0.5 2.32 0 0.88 0.2 1.66 0.5 2.26 0.5 0.8 1.1 1.2 2 1.2 0.8 0 1.4-0.4 1.9-1.2 0.4-0.7 0.6-1.42 0.6-2.3z"/><path d="m70.6 5.78c-0.2-0.04-0.4-0.06-0.7-0.06-0.7 0-1.3 0.29-1.7 0.85-0.3 0.5-0.5 1.14-0.5 1.9v5.03h-2.2l0.1-6.57c0-1.11-0.1-2.11-0.1-3.02h1.8l0.1 1.83h0.1c0.2-0.63 0.6-1.13 1-1.52 0.5-0.34 1-0.51 1.6-0.51 0.2 0 0.4 0.01 0.5 0.04v2.03z"/><path d="m80.2 8.25c0 0.38-0.1 0.71-0.1 0.97h-6.4c0 0.98 0.3 1.68 0.9 2.18 0.5 0.4 1.2 0.7 2.1 0.7s1.8-0.2 2.6-0.5l0.3 1.5c-0.9 0.4-2 0.6-3.2 0.6-1.5 0-2.6-0.5-3.5-1.3-0.8-0.9-1.3-2.1-1.3-3.56 0-1.44 0.4-2.65 1.2-3.61 0.8-1.02 2-1.54 3.4-1.54s2.4 0.52 3.1 1.54c0.6 0.82 0.9 1.83 0.9 3.02zm-2.1-0.55c0-0.63-0.1-1.18-0.4-1.64-0.4-0.59-0.9-0.89-1.7-0.89-0.7 0-1.3 0.29-1.7 0.87-0.3 0.46-0.6 1.01-0.6 1.66h4.4z"/></g><g id="Shape" fill="#fff" transform="translate(43 6)"><path d="m6.05 4.01c0 1.18-0.35 2.06-1.06 2.66-0.65 0.55-1.58 0.82-2.78 0.82-0.6 0-1.11-0.03-1.53-0.08l-0.004-6.43c0.554-0.088 1.15-0.134 1.8-0.134 1.15 0 2.01 0.254 2.59 0.744 0.65 0.57 0.98 1.37 0.98 2.42zm-1.11 0.03c0-0.76-0.2-1.35-0.6-1.76-0.4-0.4-1-0.61-1.77-0.61-0.33 0-0.61 0.02-0.85 0.07v4.89c0.13 0.02 0.37 0.03 0.71 0.03 0.8 0 1.42-0.23 1.86-0.67 0.43-0.45 0.65-1.1 0.65-1.95z"/><path d="m11.9 5.04c0 0.72-0.2 1.32-0.6 1.78-0.4 0.48-1 0.72-1.74 0.72-0.69 0-1.24-0.23-1.65-0.69s-0.62-1.04-0.62-1.73c0-0.74 0.21-1.33 0.64-1.8 0.42-0.46 0.99-0.7 1.71-0.7 0.66 0 1.26 0.23 1.66 0.69 0.4 0.45 0.6 1.02 0.6 1.73zm-1.1 0.03c0-0.43-0.1-0.81-0.3-1.12-0.2-0.37-0.5-0.56-0.9-0.56-0.42 0-0.74 0.19-0.96 0.56-0.19 0.31-0.28 0.69-0.28 1.14 0 0.43 0.09 0.81 0.28 1.12 0.23 0.37 0.54 0.56 0.95 0.56 0.4 0 0.71-0.19 0.91-0.57 0.2-0.32 0.3-0.69 0.3-1.13z"/><path d="m19.8 2.72l-1.5 4.71h-1l-0.6-2.04c-0.1-0.51-0.3-1.02-0.4-1.53-0.1 0.52-0.2 1.03-0.4 1.53l-0.6 2.04h-1l-1.4-4.71h1.1l0.5 2.24c0.2 0.53 0.3 1.04 0.4 1.51 0.1-0.39 0.2-0.89 0.4-1.5l0.6-2.25h0.9l0.6 2.2c0.2 0.54 0.3 1.06 0.4 1.55 0.1-0.48 0.2-1 0.4-1.55l0.5-2.2h1.1z"/><path d="m25.2 7.43h-1v-2.7c0-0.83-0.4-1.25-1-1.25-0.3 0-0.6 0.12-0.8 0.35s-0.2 0.5-0.2 0.81v2.79h-1.1v-3.36-1.35h0.9v0.73h0.1c0.1-0.23 0.3-0.41 0.5-0.57 0.3-0.17 0.6-0.26 1-0.26s0.8 0.14 1.1 0.43c0.3 0.35 0.5 0.87 0.5 1.56v2.82z"/><polygon points="28.1 7.43 27 7.43 27 0.556 28.1 0.556"/><path d="m34.3 5.04c0 0.72-0.2 1.32-0.7 1.78-0.4 0.48-1 0.72-1.7 0.72s-1.2-0.23-1.6-0.69c-0.5-0.46-0.7-1.04-0.7-1.73 0-0.74 0.3-1.33 0.7-1.8 0.4-0.46 1-0.7 1.7-0.7s1.2 0.23 1.7 0.69c0.4 0.45 0.6 1.02 0.6 1.73zm-1.1 0.03c0-0.43-0.1-0.81-0.3-1.12-0.2-0.37-0.5-0.56-0.9-0.56-0.5 0-0.8 0.19-1 0.56-0.2 0.31-0.3 0.69-0.3 1.14 0 0.43 0.1 0.81 0.3 1.12 0.2 0.37 0.5 0.56 0.9 0.56s0.8-0.19 1-0.57c0.2-0.32 0.3-0.69 0.3-1.13z"/><path d="m39.3 7.43h-0.9l-0.1-0.54c-0.3 0.43-0.8 0.65-1.4 0.65-0.4 0-0.8-0.14-1.1-0.43-0.2-0.25-0.3-0.58-0.3-0.96 0-0.57 0.2-1.01 0.7-1.32 0.5-0.3 1.1-0.45 2-0.44v-0.09c0-0.62-0.3-0.93-1-0.93-0.4 0-0.8 0.12-1.2 0.35l-0.2-0.69c0.4-0.27 1-0.41 1.6-0.41 1.2 0 1.9 0.65 1.9 1.95v1.74 1.12zm-1.1-1.62v-0.72c-1.1-0.02-1.7 0.29-1.7 0.95 0 0.24 0.1 0.43 0.2 0.55s0.3 0.18 0.5 0.18c0.3 0 0.5-0.07 0.7-0.21 0.2-0.15 0.3-0.34 0.3-0.56v-0.19z"/><path d="m45.3 7.43h-0.9l-0.1-0.75c-0.3 0.57-0.8 0.86-1.5 0.86-0.6 0-1.1-0.22-1.5-0.67-0.3-0.45-0.5-1.02-0.5-1.73 0-0.77 0.2-1.39 0.6-1.86 0.4-0.44 0.9-0.66 1.5-0.66s1 0.22 1.3 0.64v-2.7l1-0.004v5.6c0 0.46 0.1 0.88 0.1 1.27zm-1.1-1.99v-0.78-0.33c-0.1-0.25-0.2-0.47-0.4-0.64s-0.4-0.25-0.7-0.25c-0.4 0-0.7 0.15-0.9 0.46-0.3 0.31-0.4 0.71-0.4 1.2 0 0.46 0.1 0.84 0.4 1.13 0.2 0.31 0.5 0.47 0.9 0.47 0.3 0 0.6-0.13 0.8-0.39 0.2-0.24 0.3-0.53 0.3-0.87z"/><path d="m54.2 5.04c0 0.72-0.2 1.32-0.6 1.78-0.4 0.48-1 0.72-1.7 0.72s-1.2-0.23-1.7-0.69c-0.4-0.46-0.6-1.04-0.6-1.73 0-0.74 0.2-1.33 0.7-1.8 0.4-0.46 1-0.7 1.7-0.7s1.2 0.23 1.6 0.69c0.4 0.45 0.6 1.02 0.6 1.73zm-1 0.03c0-0.43-0.1-0.81-0.3-1.12-0.2-0.37-0.6-0.56-1-0.56s-0.7 0.19-0.9 0.56c-0.2 0.31-0.3 0.69-0.3 1.14 0 0.43 0.1 0.81 0.3 1.12 0.2 0.37 0.5 0.56 0.9 0.56s0.7-0.19 1-0.57c0.2-0.32 0.3-0.69 0.3-1.13z"/><path d="m59.9 7.43h-1.1v-2.7c0-0.83-0.3-1.25-0.9-1.25-0.3 0-0.6 0.12-0.8 0.35s-0.3 0.5-0.3 0.81v2.79h-1v-3.36-1.35h0.9v0.73h0.1c0.1-0.23 0.3-0.41 0.5-0.57 0.3-0.17 0.6-0.26 0.9-0.26 0.5 0 0.8 0.14 1.1 0.43 0.4 0.35 0.6 0.87 0.6 1.56v2.82z"/><path d="m66.9 3.5h-1.1v2.29c0 0.59 0.2 0.88 0.6 0.88 0.2 0 0.3-0.02 0.5-0.05v0.79c-0.2 0.08-0.5 0.12-0.8 0.12-0.4 0-0.8-0.13-1-0.38s-0.3-0.67-0.3-1.27v-2.38h-0.7v-0.78h0.7v-0.86l1-0.32v1.18h1.1v0.78z"/><path d="m72.5 7.43h-1.1v-2.68c0-0.84-0.3-1.27-0.9-1.27-0.5 0-0.8 0.25-1 0.74 0 0.1-0.1 0.23-0.1 0.38v2.83h-1v-6.87l1-0.004v2.84h0.1c0.3-0.52 0.8-0.78 1.4-0.78 0.4 0 0.8 0.14 1.1 0.43 0.3 0.35 0.5 0.88 0.5 1.58v2.8z"/><path d="m78.2 4.85v0.48h-3.2c0 0.46 0.2 0.82 0.5 1.07 0.2 0.22 0.6 0.32 1 0.32 0.5 0 0.9-0.07 1.3-0.22l0.1 0.73c-0.4 0.19-0.9 0.29-1.5 0.29-0.8 0-1.3-0.21-1.8-0.64-0.4-0.43-0.6-1.01-0.6-1.74 0-0.71 0.2-1.3 0.6-1.77 0.4-0.5 1-0.76 1.6-0.76 0.7 0 1.2 0.26 1.6 0.76 0.3 0.4 0.4 0.89 0.4 1.48zm-1-0.27c0-0.31-0.1-0.58-0.2-0.8-0.2-0.29-0.5-0.44-0.8-0.44-0.4 0-0.7 0.14-0.9 0.43-0.1 0.22-0.2 0.49-0.3 0.81h2.2z"/></g></g></g></g></svg>
